<svg width="1200" height="800" viewBox="0 0 1200 800" fill="none" xmlns="http://www.w3.org/2000/svg">
  <defs>
    <linearGradient id="bg" x1="0" y1="0" x2="1200" y2="800" gradientUnits="userSpaceOnUse">
      <stop stop-color="#061826"/>
      <stop offset="1" stop-color="#0B3A57"/>
    </linearGradient>
    <linearGradient id="cyan" x1="260" y1="160" x2="920" y2="620" gradientUnits="userSpaceOnUse">
      <stop stop-color="#22D3EE"/>
      <stop offset="1" stop-color="#38BDF8"/>
    </linearGradient>
    <linearGradient id="green" x1="420" y1="160" x2="950" y2="660" gradientUnits="userSpaceOnUse">
      <stop stop-color="#34D399"/>
      <stop offset="1" stop-color="#10B981"/>
    </linearGradient>
  </defs>
  <rect width="1200" height="800" fill="url(#bg)"/>
  <circle cx="960" cy="160" r="220" fill="#22D3EE" fill-opacity="0.15"/>
  <circle cx="210" cy="620" r="210" fill="#10B981" fill-opacity="0.10"/>

  <rect x="110" y="150" width="980" height="500" rx="40" fill="white" fill-opacity="0.05" stroke="white" stroke-opacity="0.14"/>
  <path d="M210 520C300 450 360 450 440 380C520 310 590 300 660 340C730 380 780 470 900 430C975 405 1010 340 1050 290" stroke="url(#cyan)" stroke-width="16" stroke-linecap="round"/>
  <path d="M210 470C300 400 365 400 445 330C525 260 598 250 675 288C750 326 810 420 905 388C980 362 1012 310 1050 260" stroke="url(#green)" stroke-width="8" stroke-linecap="round" stroke-opacity="0.55"/>

  <circle cx="210" cy="520" r="24" fill="#22D3EE"/>
  <circle cx="345" cy="452" r="24" fill="#38BDF8"/>
  <circle cx="470" cy="382" r="24" fill="#22D3EE"/>
  <circle cx="596" cy="332" r="24" fill="#38BDF8"/>
  <circle cx="735" cy="360" r="24" fill="#34D399"/>
  <circle cx="860" cy="432" r="24" fill="#22D3EE"/>
  <circle cx="980" cy="336" r="24" fill="#38BDF8"/>

  <line x1="210" y1="520" x2="345" y2="452" stroke="white" stroke-opacity="0.18" stroke-width="8"/>
  <line x1="345" y1="452" x2="470" y2="382" stroke="white" stroke-opacity="0.18" stroke-width="8"/>
  <line x1="470" y1="382" x2="596" y2="332" stroke="white" stroke-opacity="0.18" stroke-width="8"/>
  <line x1="596" y1="332" x2="735" y2="360" stroke="white" stroke-opacity="0.18" stroke-width="8"/>
  <line x1="735" y1="360" x2="860" y2="432" stroke="white" stroke-opacity="0.18" stroke-width="8"/>
  <line x1="860" y1="432" x2="980" y2="336" stroke="white" stroke-opacity="0.18" stroke-width="8"/>

  <rect x="170" y="220" width="860" height="60" rx="20" fill="white" fill-opacity="0.05"/>
  <rect x="170" y="220" width="180" height="60" rx="20" fill="url(#cyan)" fill-opacity="0.16"/>
  <rect x="170" y="220" width="120" height="60" rx="20" fill="white" fill-opacity="0.05"/>
  <rect x="320" y="220" width="120" height="60" rx="20" fill="white" fill-opacity="0.06"/>
  <rect x="470" y="220" width="120" height="60" rx="20" fill="white" fill-opacity="0.06"/>
  <rect x="620" y="220" width="120" height="60" rx="20" fill="white" fill-opacity="0.06"/>
  <rect x="770" y="220" width="120" height="60" rx="20" fill="white" fill-opacity="0.06"/>

  <path d="M170 600H1030" stroke="white" stroke-opacity="0.1" stroke-width="10" stroke-linecap="round"/>
  <path d="M240 560H980" stroke="white" stroke-opacity="0.07" stroke-width="10" stroke-linecap="round"/>
</svg>
